<?xml version="1.0" encoding="UTF-8"?>
<svg width="100px" height="100px" viewBox="0 0 100 100" version="1.1" xmlns="http://www.w3.org/2000/svg" xmlns:xlink="http://www.w3.org/1999/xlink">
    <!-- Generator: Sketch 45.2 (43514) - http://www.bohemiancoding.com/sketch -->
    <title>prometheus</title>
    <desc>Created with Sketch.</desc>
    <defs></defs>
    <g id="Page-1" stroke="none" stroke-width="1" fill="none" fill-rule="evenodd">
        <g id="prometheus" fill-rule="nonzero" fill="#B8B8B8">
            <path d="M50.0004412,3.12178676e-15 C22.3871247,3.12178676e-15 0,22.3848726 0,49.9995588 C0,77.6133626 22.3871247,100 50.0004412,100 C77.6137577,100 100,77.6133626 100,49.9995588 C100,22.3848726 77.6128753,-1.77635684e-15 50.0004412,3.12178676e-15 Z M49.8864141,88.223871 C42.8334797,88.223871 37.1152482,83.6412396 37.1152482,77.9899953 L62.6575799,77.9899953 C62.6575799,83.6404692 56.9393484,88.223871 49.8864141,88.223871 Z M70.9802642,74.6007896 L28.7901876,74.6007896 L28.7901876,67.159792 L70.9810563,67.159792 L70.9810563,74.6007896 L70.9802642,74.6007896 Z M70.8289715,63.3298895 L28.9105881,63.3298895 C28.771177,63.1734883 28.6285974,63.0193985 28.493939,62.860686 C24.1753633,57.7603128 23.1582959,55.0976406 22.1705366,52.3841188 C22.1539023,52.2947467 27.4071661,53.4280774 31.1324525,54.2432125 C31.1324525,54.2432125 33.0493552,54.6746641 35.8518351,55.1716037 C33.1610425,52.1036753 31.5633596,48.2036619 31.5633596,44.2173581 C31.5633596,35.4658266 38.4642091,27.8183486 35.974612,21.6370353 C38.397672,21.8288772 40.9894511,26.6110549 41.164507,34.0882636 C43.740444,30.6258652 44.8185037,24.3027893 44.8185037,20.4258893 C44.8185037,16.4118494 47.5378123,11.7490913 50.257913,11.5896084 C47.8332688,15.4765242 50.886055,18.8087166 53.5998189,27.0748652 C54.6176783,30.1797752 54.4877725,35.4049611 55.2735442,38.7186628 C55.5341479,31.8362408 56.7508266,21.794207 61.2397056,18.3271859 C59.2594343,22.6933211 61.5327858,28.1565758 63.0876948,30.7830368 C65.5963025,35.020507 67.1171509,38.2309685 67.1171509,44.302878 C67.1171509,48.3739312 65.5717472,52.2069155 62.964918,55.2031922 C65.9289881,54.6623369 67.9757966,54.1746426 67.9757966,54.1746426 L77.6014994,52.3479077 C77.6022915,52.3471373 76.2034279,57.9421388 70.8289715,63.3298895 Z" id="path3023"></path>
        </g>
    </g>
</svg>